<svg xmlns="http://www.w3.org/2000/svg" viewBox="0 0 200 200" enable-background="new 0 0 200 200"><path fill="#006EC3" d="M163.8 200H36.2C16.2 200 0 183.8 0 163.8V36.2C0 16.2 16.2 0 36.2 0h127.7c20 0 36.2 16.2 36.2 36.2v127.7c-.1 19.9-16.3 36.1-36.3 36.1z"/><path fill="#fff" d="M92.4 109c-1.2 0-4.1.1-5.1.2v13.7c.9.1 4.1.2 5.1.2 6.2 0 8.6-2.3 8.6-6.9v-.5c0-4.9-2.9-6.7-8.6-6.7zM69.1 88.9c5.7 0 8.4-3.4 8.4-11.1v-6.9c0-7.7-2.7-11.1-8.4-11.1s-8.4 3.4-8.4 11.1v6.9c-.1 7.7 2.7 11.1 8.4 11.1zm94.5-7.7c-2.3-8.6-6.2-15.8-11.6-21.6h-13.1c-3.4 0-4.6 1.2-4.6 5v5.8H150c.6 0 1.2.5 1.2 1.2v4.2c0 .6-.5 1.2-1.2 1.2h-15.8v7c0 3.8 1.2 5 4.6 5h11.9c.6 0 1.2.5 1.2 1.2v3.7c0 .8-.3 1.1-1.2 1.2-1.9.3-4.2.8-11.1.8-7.6 0-13.5-2-13.5-11.9V64.6c0-9.9 5.9-11.9 13.5-11.9 1.6 0 3 0 4.2.1-2.6-1.7-5.4-3.2-8.5-4.5-14.6-6.2-30.7-6.9-48.2-2.2-6.9 1.9-13.1 4.1-18.7 6.7h.6c9.6 0 16.6 5.4 16.6 18.2v6.9c0 12.8-7 18.2-16.6 18.2s-16.6-5.4-16.6-18.2V71c0-4 .7-7.2 1.9-9.8-4.3 3.2-8 6.8-11 10.7-9.2 11.8-11.6 25.8-7.3 42 2.1 7.9 5.2 14.7 9.2 20.4l6.8-25.9c1.4-5.4 5.5-5.9 8-5.9s6.6.5 8 5.9l9.4 36.1c0 .1.1.2.1.3 0 .6-.5 1-1 1h-6.1c-.5 0-1-.5-1.1-1l-2.6-10.9H53.4l-1.9 7.7c3.7 3.5 8 6.4 12.8 8.6 14.2 6.5 31.2 7.1 51 1.7 9.4-2.5 17.6-5.9 24.5-10v-24.4c0-.4-.1-.6-.2-.6s-.2.2-.3.3l-5.5 11.1c-.3.6-1.1 1-1.8 1h-5.8c-.7 0-1.5-.3-1.8-1l-5.6-11.1c-.1-.2-.2-.3-.3-.3-.1 0-.2.2-.2.6v27c0 .6-.4 1.2-.9 1.2h-5.8c-.5 0-1-.3-1-.9v-40c0-1.3 1-2.3 2.3-2.3h4.7c.9 0 1.7.6 2.1 1.4l8.7 17.8c.3.5.4.8.6.8.2 0 .3-.3.6-.8l8.7-17.8c.4-.8 1.2-1.4 2.1-1.4h4.7c1.3 0 2.3 1 2.3 2.3v31.7c4-3.3 7.5-6.9 10.3-10.9 8.6-12.2 10.5-27 5.9-44.4zm-54.7 35c0 10.2-7.7 13.5-16.4 13.5-1.5 0-3.8-.2-5.1-.2v15c0 .6-.5 1.2-1.1 1.2h-5.7c-.6 0-1.1-.5-1.1-1.2v-39.6c0-1.2.7-1.6 1.8-1.7 3-.5 7-.7 11.2-.7 8.8 0 16.4 3.1 16.4 13.3v.4zm12.6-22.6c0 1.3-1 2.3-2.3 2.3h-5.8c-1.4 0-2.6 0-3.5-2.1L97.2 65.5c-.2-.3-.3-.5-.5-.5s-.3.1-.3.5v29.3c0 .6-.5 1.2-1.1 1.2h-4.9c-.6 0-1.1-.5-1.1-1.2V55c0-1.3 1-2.3 2.3-2.3h6.2c1.2 0 1.8.3 2.5 1.9l13.4 29.9c.1.3.3.5.5.5.1 0 .3-.2.3-.5V53.8c0-.6.5-1.1 1.1-1.1h4.9c.6 0 1.1.5 1.1 1.1v39.8zm-61.4 15.5c-.6 0-.7.2-.9.9L55 127.1h10.1L61 110c-.2-.7-.4-.9-.9-.9z"/></svg>